<?xml version="1.0" encoding="utf-8"?>
<!-- Generator: Adobe Illustrator 23.0.1, SVG Export Plug-In . SVG Version: 6.00 Build 0)  -->
<svg version="1.1" id="Layer_1" xmlns="http://www.w3.org/2000/svg" xmlns:xlink="http://www.w3.org/1999/xlink" x="0px" y="0px"
	 viewBox="0 0 44 61.9" enable-background="new 0 0 44 61.9" xml:space="preserve">
<path id="android" transform="translate(0 -0.107)" fill="inherit" d="M6,21v29.9c0,1.6,1.3,2.8,2.9,2.8h4.2v6.1c0,1.3,1.1,2.3,2.3,2.2
	c1.3,0,2.3-1,2.3-2.2v-6.1h8.3v6.1c0.1,1.3,1.1,2.3,2.4,2.2c1.2-0.1,2.2-1,2.2-2.2v-6.1h4.2c1.6,0,2.9-1.2,2.9-2.8V21H6z M5,40.6
	C5,42.5,3.9,44,2.5,44S0,42.5,0,40.6V26.4C0,24.5,1.1,23,2.5,23S5,24.5,5,26.4V40.6z M44,40.6c0,1.9-1.1,3.4-2.5,3.4
	S39,42.5,39,40.6V26.4c0-1.9,1.1-3.4,2.5-3.4s2.5,1.5,2.5,3.4V40.6z M22,19c-7.7,0-15.9,0-16,0c0.1-1.6,0.4-3.2,0.9-4.8
	c0.5-1.5,1.2-2.9,2-4.2c1-1.5,2.3-2.8,3.8-3.8l-1.8-5c-0.1-0.2-0.1-0.4,0-0.6c0.1-0.2,0.3-0.3,0.5-0.4c0.1,0,0.2,0,0.3,0
	c0.3,0,0.7,0.2,0.8,0.5l1.7,4.6c2.4-1.2,5.1-1.7,7.8-1.7c2.5,0,4.9,0.5,7.2,1.5l1.6-4.5c0.1-0.3,0.4-0.5,0.8-0.5c0.1,0,0.2,0,0.3,0
	c0.2,0.1,0.4,0.2,0.5,0.4c0.1,0.2,0.1,0.4,0,0.6l-1.7,4.8c6.7,4.3,7.3,12.9,7.3,13C37.9,19,29.7,19,22,19z M27.6,8.6
	c-1,0-1.8,0.9-1.8,1.9c0,1,0.9,1.8,1.9,1.8c1,0,1.8-0.9,1.8-1.8C29.5,9.4,28.7,8.6,27.6,8.6z M15.9,8.6c-1,0-1.8,0.9-1.8,1.9
	s0.9,1.8,1.9,1.8c1,0,1.8-0.9,1.8-1.8C17.7,9.4,16.9,8.6,15.9,8.6z"/>
</svg>
