<svg xmlns="http://www.w3.org/2000/svg" width="45" height="42.1" viewBox="0 0 45 42.1">
  <title>deposit</title>
  <path fill="inherit" d="M43.55,24A2.91,2.91,0,0,0,42,21.37a14.27,14.27,0,0,1,.15,2,15,15,0,0,1-.38,3.3A2.89,2.89,0,0,0,43.55,24m-2.9-.61c0-6.82-4.91-12-12.46-13.67A6.51,6.51,0,0,1,26.12,12a21.21,21.21,0,0,1,2.41.6.74.74,0,0,1,.47.92.75.75,0,0,1-.69.5.59.59,0,0,1-.23,0,18.33,18.33,0,0,0-11.16,0,.73.73,0,0,1-.92-.46.74.74,0,0,1,.47-.92,21.21,21.21,0,0,1,2.41-.6,6.42,6.42,0,0,1-2.07-2.29,12,12,0,0,0-3,1.18l-.81.46-.75-.54A13.34,13.34,0,0,0,7.58,8.61a.13.13,0,0,0-.14.06.14.14,0,0,0,0,.14,19.26,19.26,0,0,1,1.66,5.42,1.38,1.38,0,0,1-.11.66c-.94,2.18-3.31,5.43-6,5.43H2.22a.78.78,0,0,0-.77.77v4.49c0,2.42,0,2.42,1.69,3.87a48.75,48.75,0,0,0,6,4.57l2.06,6.14a.72.72,0,0,0,.67.49h2.15a.7.7,0,0,0,.68-.54l.85-3.28a25.59,25.59,0,0,0,7,.91,24.71,24.71,0,0,0,6.62-.87l.8,3.24a.73.73,0,0,0,.69.54h2.15a.72.72,0,0,0,.67-.49l2.2-6.51a13,13,0,0,0,5-10.31M17.42,6.53A5.08,5.08,0,1,0,22.5,1.45a5.09,5.09,0,0,0-5.08,5.08M45,24a4.35,4.35,0,0,1-3.76,4.3,14.67,14.67,0,0,1-4.35,6.23L34.8,40.76A2,2,0,0,1,33,42.1H30.5a2,2,0,0,1-1.89-1.47l-.51-2a27,27,0,0,1-5.55.57,27.9,27.9,0,0,1-5.93-.62l-.52,2.06a2,2,0,0,1-1.89,1.47H11.76a2,2,0,0,1-1.85-1.34L8,35a51.42,51.42,0,0,1-5.79-4.42C0,28.67,0,28.57,0,25.58V21a2,2,0,0,1,1.88-2.09H2.93c1.69,0,3.75-2.31,4.71-4.55A18.27,18.27,0,0,0,6.1,9.23C5.5,7.92,6,7.64,6.3,7.45c1.2-.66,4.45.48,6.78,2.14a13.41,13.41,0,0,1,3.16-1.28A6.55,6.55,0,0,1,16,6.53,6.53,6.53,0,0,1,29,6.53a6.21,6.21,0,0,1-.28,1.79c6.87,1.63,11.47,5.95,12.87,11.4A4.33,4.33,0,0,1,45,24M13.06,18.87a1.45,1.45,0,1,1-1.45-1.45,1.44,1.44,0,0,1,1.45,1.45" fill-rule="evenodd"/>
</svg>
