<?xml version="1.0" encoding="utf-8"?>
<!-- Generator: Adobe Illustrator 23.0.1, SVG Export Plug-In . SVG Version: 6.00 Build 0)  -->
<svg version="1.1" id="Layer_1" xmlns="http://www.w3.org/2000/svg" xmlns:xlink="http://www.w3.org/1999/xlink" x="0px" y="0px"
	 viewBox="0 0 29.2 29.2" enable-background="new 0 0 29.2 29.2" xml:space="preserve">
<path id="facebook" d="M27.6,0h-26C0.7,0,0,0.7,0,1.6c0,0,0,0,0,0v26c0,0.9,0.7,1.6,1.6,1.6h14V17.9h-3.8v-4.4h3.8
	v-3.2c0-3.8,2.3-5.8,5.7-5.8c1.1,0,2.3,0.1,3.4,0.2v3.9l-2.3,0c-1.8,0-2.2,0.9-2.2,2.1v2.8h4.4L24,17.9h-3.8v11.3h7.4
	c0.9,0,1.6-0.7,1.6-1.6v-26C29.2,0.7,28.5,0,27.6,0C27.6,0,27.6,0,27.6,0"/>
</svg>
