<svg xmlns="http://www.w3.org/2000/svg" xmlns:xlink="http://www.w3.org/1999/xlink" width="43" height="43" viewBox="0 0 43 43">
  <title>funds</title>
  <path fill="inherit" d="M3.79,41.07H39.16V35H29a6,6,0,1,1,0-12h9.32a1.18,1.18,0,0,0,.88-1V16H3.79A3.67,3.67,0,0,1,2,15.49V39A1.9,1.9,0,0,0,3.79,41.07ZM3.78,10A1.88,1.88,0,0,0,2,12H2a1.89,1.89,0,0,0,1.81,2H6.15L9.94,10ZM23.93,14l-2.38-2.57a3.23,3.23,0,0,1-1.91.66,3.27,3.27,0,0,1-1.91-.66L15.34,14ZM19.64,2.4,8.82,14h3.85l4.26-4.58a1,1,0,0,1,1.47,0,2,2,0,0,0,1.24.74,2,2,0,0,0,1.25-.75,1,1,0,0,1,.73-.31h0a1,1,0,0,1,.73.32L26.6,14h3.85ZM34.5,10H29.33L33.13,14H34.5ZM41,31V23H41a3,3,0,0,1-2.67,2H29a4,4,0,0,0,0,8.08H39.21a1.93,1.93,0,0,0,.42,0,1,1,0,0,1,.33-.13A2.07,2.07,0,0,0,41,31Zm.12-10A1.94,1.94,0,0,1,43,23v8a4,4,0,0,1-1.86,3.42V42a1,1,0,0,1-1,1H3.79A3.84,3.84,0,0,1,0,39V12H0A3.83,3.83,0,0,1,3.78,8h8L18.9.32a1,1,0,0,1,1.47,0L27.53,8h7.95a1,1,0,0,1,1,1v5h3.68a1,1,0,0,1,1,1ZM29,30.05A1.05,1.05,0,1,0,28,29,1,1,0,0,0,29,30.05ZM29,26a3,3,0,1,1-3,3A3,3,0,0,1,29,26Z" fill-rule="evenodd"/>
</svg>
