<svg xmlns="http://www.w3.org/2000/svg" xmlns:xlink="http://www.w3.org/1999/xlink" viewBox="0 0 42.167 35.75">
  <path fill="inherit" d="M34.365,35.75H11.058a1.076,1.076,0,0,1-1.071-1.079v-23.9H2.56a1.061,1.061,0,0,1-.751-.31,6.14,6.14,0,0,1-.032-8.671A6,6,0,0,1,6.063,0H29.372a5.8,5.8,0,0,1,2.093.389c.093.036.188.076.284.119.136.061.27.126.4.2a6.146,6.146,0,0,1,1.526,1.164,6.307,6.307,0,0,1,1.168,1.706c.038.082.078.171.121.274a6.258,6.258,0,0,1,.473,2.39v5.156a9.369,9.369,0,0,1,1.977-.22l.161,0a7.777,7.777,0,0,1,2.873.5,2.653,2.653,0,0,1,1.626,1.688,3.225,3.225,0,0,1-.76,2.876,11.036,11.036,0,0,1-2.688,2.425,32.218,32.218,0,0,0-3.189,2.61v13.4a1.077,1.077,0,0,1-.313.763A1.059,1.059,0,0,1,34.365,35.75ZM12.129,10.769V33.593H33.293V23.14c-2.186,1.819-4.845,3.682-7.972,3.713-.932,1.227-1.505,2.037-1.508,2.041a1.074,1.074,0,0,1-.874.454,1.052,1.052,0,0,1-.62-.2,1.087,1.087,0,0,1-.249-1.507l.006-.008c.319-.449.726-1,1.145-1.562-.04-.212-.34-2.182,1.215-5.719a17.3,17.3,0,0,1,5.036-5.979,17.221,17.221,0,0,1,3.821-2.29V6.236a4.056,4.056,0,0,0-3.921-4.078,3.956,3.956,0,0,0-2.751,6.764,1.079,1.079,0,0,1-.752,1.847Zm21.33,4.91A1.081,1.081,0,0,1,34,17.694c-2.016,1.171-4.758,4.264-6.7,6.652,2.32-.769,4.5-2.7,6.6-4.577a34.823,34.823,0,0,1,3.544-2.9A8.975,8.975,0,0,0,39.6,14.945c.4-.537.451-.866.418-.977-.045-.154-.6-.6-2.483-.638h-.115a11.459,11.459,0,0,0-6.629,2.744A14.941,14.941,0,0,0,26.4,21.225a15.825,15.825,0,0,0-.592,1.55l.013-.016c.013-.017.028-.035.042-.051,2.9-3.527,5.277-5.842,7.068-6.882A1.071,1.071,0,0,1,33.459,15.68ZM6.063,2.158A3.956,3.956,0,0,0,3.03,8.612H23.839l-.028-.067,0-.01L23.8,8.508a6.152,6.152,0,0,1,.952-6.35H6.063Z" />
</svg>
