<?xml version="1.0" encoding="utf-8"?>
<!-- Generator: Adobe Illustrator 23.0.1, SVG Export Plug-In . SVG Version: 6.00 Build 0)  -->
<svg version="1.1" id="Layer_1" xmlns="http://www.w3.org/2000/svg" xmlns:xlink="http://www.w3.org/1999/xlink" x="0px" y="0px"
	 viewBox="0 0 29.4 29.2" enable-background="new 0 0 29.4 29.2" xml:space="preserve">
<path d="M14.5,22c-4.4,0.1-8-3.4-8-7.8c0-2.1,0.9-4.2,2.5-5.6c1.5-1.4,3.4-2.1,5.4-2.1h0.2c2.2,0,4.4,0.8,6,2.4
	c1.4,1.5,2.1,3.4,2,5.4c0,2.1-0.9,4-2.4,5.5C18.7,21.2,16.6,22,14.5,22z M14.3,9.1c-1.3,0-2.6,0.5-3.5,1.4c-1,1-1.6,2.3-1.6,3.8
	c0.1,2.9,2.4,5.2,5.3,5.2c2.9,0,5.3-2.3,5.3-5.2c0.1-1.3-0.4-2.6-1.3-3.6c-1.1-1-2.6-1.6-4.1-1.5L14.3,9.1L14.3,9.1z M24.6,6.7
	c0,1-0.9,1.8-1.9,1.8c-1,0-1.9-0.8-1.9-1.8c0-1,0.9-1.8,1.9-1.8C23.7,4.8,24.6,5.7,24.6,6.7 M20.8,29.2H8.6C4,29.3,0.1,25.6,0,20.9
	V8.4C0.1,3.7,4-0.1,8.6,0h12.2c4.7-0.1,8.6,3.7,8.6,8.4v12.5C29.4,25.6,25.5,29.3,20.8,29.2z M8.6,2.1C5.2,2.1,2.3,4.9,2.2,8.4v12.5
	c0.1,3.5,2.9,6.3,6.4,6.2h12.2c3.5,0.1,6.4-2.7,6.4-6.2V8.4c-0.1-3.5-2.9-6.3-6.4-6.2H8.6z"/>
</svg>
