<?xml version="1.0" encoding="utf-8"?>
<!-- Generator: Adobe Illustrator 23.0.1, SVG Export Plug-In . SVG Version: 6.00 Build 0)  -->
<svg version="1.1" id="Layer_1" xmlns="http://www.w3.org/2000/svg" xmlns:xlink="http://www.w3.org/1999/xlink" x="0px" y="0px"
	 viewBox="0 0 51 62" enable-background="new 0 0 51 62" xml:space="preserve">
<path id="ios" fill="inherit" d="M16.3,62c-2-0.1-3.9-1-5.3-2.5c-1.6-1.6-3.1-3.4-4.4-5.4c-3-4.5-5.1-9.6-6.1-14.9
	C-0.3,34.8-0.5,28.4,2.6,23c1.3-2.3,3.2-4.2,5.5-5.6c2.2-1.4,4.8-2.1,7.4-2.1h0.2c1.9,0.1,3.8,0.5,5.6,1.3l0.7,0.3
	c1.2,0.6,2.5,1,3.9,1.1c1.3-0.2,2.6-0.5,3.8-1.1c0.4-0.2,0.9-0.3,1.3-0.5c1.9-0.8,3.9-1.2,5.9-1.3c0.3,0,0.7,0,1,0
	c1.8,0.1,3.5,0.5,5.1,1.1c2.6,1,4.8,2.8,6.3,5l0,0c-1.3,0.8-2.5,1.8-3.5,3c-2.1,2.4-3.3,5.5-3.2,8.8c0,3.7,1.5,7.2,4.2,9.8
	c1.2,1.2,2.6,2.1,4.2,2.8l0,0l0,0.1c-0.3,0.9-0.6,1.8-1,2.8c-0.9,2.1-2,4.1-3.3,6c-1.2,1.9-2.6,3.6-4.2,5.2
	c-1.4,1.5-3.4,2.3-5.4,2.4h-0.2c-1.6,0-3.2-0.4-4.7-1.2l-0.1,0c-1.7-0.8-3.5-1.2-5.4-1.3c-1.9,0-3.7,0.4-5.4,1.2L21,60.8h0
	c-1.4,0.7-2.9,1.1-4.5,1.2C16.4,62,16.3,62,16.3,62z M25.7,14c-0.2,0-0.4,0-0.6,0c-0.2-1.7,0-3.5,0.7-5.1c0.6-1.5,1.4-3,2.5-4.2
	c1.1-1.3,2.5-2.4,4-3.2c1.4-0.8,3-1.3,4.7-1.4c0.2,1.8,0,3.5-0.6,5.2c-0.6,1.6-1.4,3.1-2.5,4.5c-1.1,1.3-2.4,2.4-3.9,3.2
	C28.6,13.6,27.2,14,25.7,14L25.7,14z"/>
</svg>
