<svg xmlns="http://www.w3.org/2000/svg" xmlns:xlink="http://www.w3.org/1999/xlink" width="41.25" height="41.25" viewBox="0 0 41.25 41.25">
  <title>settings</title>
  <path fill="inherit" d="M39,19.72v-.91s0,0,0-.08l0-.07-.06-.05-.08,0-.91-.16-.9-.15L36,18.13l-.9-.15a1.7,1.7,0,0,1-.32-.1,1,1,0,0,1-.27-.19,1.09,1.09,0,0,1-.21-.26,1.07,1.07,0,0,1-.13-.31c-.08-.31-.17-.63-.28-.94s-.22-.61-.34-.91-.26-.6-.41-.9-.3-.58-.47-.86a1.2,1.2,0,0,1-.13-.31,1.23,1.23,0,0,1,0-.33,1,1,0,0,1,.06-.33,1.4,1.4,0,0,1,.15-.3l.53-.74.54-.75.53-.75.53-.75a.09.09,0,0,0,0-.07.22.22,0,0,0,0-.08.19.19,0,0,0,0-.07.18.18,0,0,0,0-.07l-.64-.64-.64-.64L32.94,7l-.64-.65,0,0,0,0H32l0,0-.74.53-.74.54L29.77,8,29,8.51a1.68,1.68,0,0,1-.3.15,1.91,1.91,0,0,1-.33.06,1.12,1.12,0,0,1-.32,0,1,1,0,0,1-.32-.12c-.28-.17-.58-.33-.88-.48s-.6-.29-.91-.41-.62-.25-.94-.35-.64-.2-1-.28a1.08,1.08,0,0,1-.57-.34.92.92,0,0,1-.19-.28,1.09,1.09,0,0,1-.1-.32l-.16-.9-.15-.9-.15-.89-.15-.9a.19.19,0,0,0,0-.08l0-.06-.07,0H18.67l-.07,0-.05.06a.19.19,0,0,0,0,.08l-.16.91-.15.91-.16.91-.15.91a1.21,1.21,0,0,1-.11.32,1.27,1.27,0,0,1-.18.27,1.33,1.33,0,0,1-.26.21,1.07,1.07,0,0,1-.31.13l-.94.28-.91.35c-.3.13-.6.27-.89.42s-.58.3-.86.47a1.2,1.2,0,0,1-.31.13,1.23,1.23,0,0,1-.33,0,1,1,0,0,1-.33-.06,1.05,1.05,0,0,1-.3-.15L11.43,8l-.74-.53L10,7,9.2,6.43l0,0H9L9,6.42l0,0-.64.65-.64.64L7,8.38,6.34,9a.16.16,0,0,0,0,.07.19.19,0,0,0,0,.08v.07l0,.08.53.75.54.75.54.76.53.75a1.08,1.08,0,0,1,.16.3,1.65,1.65,0,0,1,.06.32,1.84,1.84,0,0,1,0,.33,1.37,1.37,0,0,1-.13.31c-.16.28-.32.57-.46.86s-.28.59-.4.9-.24.61-.34.92-.19.62-.27.94a1.07,1.07,0,0,1-.13.31,1.33,1.33,0,0,1-.21.26,1.38,1.38,0,0,1-.28.19,1.19,1.19,0,0,1-.32.1l-.9.15-.9.15-.9.15-.89.15-.08,0-.06.05a.16.16,0,0,0,0,.07.19.19,0,0,0,0,.08v3.63a.17.17,0,0,0,0,.07.16.16,0,0,0,0,.07l.06,0s.05,0,.08,0l.91.15.91.16.91.15.91.16a1.19,1.19,0,0,1,.32.1,1.31,1.31,0,0,1,.27.19,1.27,1.27,0,0,1,.21.25,1.2,1.2,0,0,1,.13.31c.08.32.18.63.28.94s.22.62.35.92.27.6.41.89.31.57.48.85a1.27,1.27,0,0,1,.13.32,1.84,1.84,0,0,1,0,.33,1,1,0,0,1-.06.33,1.68,1.68,0,0,1-.15.3L8,29.84l-.53.75L7,31.33l-.53.74a.3.3,0,0,0,0,.08v.08a.19.19,0,0,0,0,.07.25.25,0,0,0,0,.07L7.1,33l.65.64.64.64.64.64.05,0,0,0h.17l0,0,.76-.54.75-.53.76-.54.75-.54.16-.09.16-.07.18,0h.32a.4.4,0,0,1,.15,0l.15,0a.84.84,0,0,1,.14.06c.28.16.56.31.85.45s.57.28.87.4.59.23.9.33.6.19.91.27a1.2,1.2,0,0,1,.31.13,1.27,1.27,0,0,1,.25.21,1,1,0,0,1,.19.27,1.19,1.19,0,0,1,.1.32l.15.91.16.9.15.91.15.9a.19.19,0,0,0,0,.08l.05.06.07,0h3.79l.07,0,.05-.06a.19.19,0,0,0,0-.08l.16-.9.15-.91.15-.9.15-.91a1.7,1.7,0,0,1,.1-.32,1,1,0,0,1,.19-.27,1.08,1.08,0,0,1,.57-.34c.31-.08.63-.17.94-.28s.61-.21.91-.34.6-.26.9-.41.58-.3.86-.47a1.2,1.2,0,0,1,.31-.13,1.84,1.84,0,0,1,.33,0,1,1,0,0,1,.33.06,1.59,1.59,0,0,1,.29.15l.75.54.75.53.75.53.74.53,0,0h.18l0,0,0,0,.64-.65.64-.64.64-.64.65-.64a.16.16,0,0,0,0-.07.19.19,0,0,0,0-.08.17.17,0,0,0,0-.07.09.09,0,0,0,0-.07l-.53-.75-.53-.75-.53-.75L32.75,29a1.77,1.77,0,0,1-.15-.31.87.87,0,0,1-.06-.32,1.84,1.84,0,0,1,0-.33,1.2,1.2,0,0,1,.13-.31c.17-.28.33-.57.47-.86s.29-.59.41-.89.24-.61.34-.92.2-.62.28-.94a1.2,1.2,0,0,1,.13-.31,1.27,1.27,0,0,1,.21-.25,1,1,0,0,1,.27-.19,1.19,1.19,0,0,1,.32-.1l.91-.15.9-.16.91-.15.9-.15.08,0,.06-.05,0-.07a.22.22,0,0,0,0-.08h0V19.72Zm2.15-1.8a2.64,2.64,0,0,1,.15.89v3.63a2.65,2.65,0,0,1-.16.89,2.52,2.52,0,0,1-.44.76,2.64,2.64,0,0,1-.68.56,2.61,2.61,0,0,1-.85.31l-.72.12-.73.12-.72.12-.72.12-.24.72c-.09.23-.18.47-.28.7s-.2.47-.31.7-.22.46-.34.69l.43.6.43.59.42.6.43.6a2.44,2.44,0,0,1,.38.82,2.38,2.38,0,0,1,.08.88,2.43,2.43,0,0,1-.22.84,2.53,2.53,0,0,1-.52.75l-.64.64-.64.64-.64.64-.64.64a3.66,3.66,0,0,1-.39.32,2.11,2.11,0,0,1-.44.24,2.43,2.43,0,0,1-.48.14,2.07,2.07,0,0,1-.5.05l-.39,0-.39-.09A2.75,2.75,0,0,1,31,37a2.33,2.33,0,0,1-.34-.2l-.59-.43-.6-.42-.6-.43-.59-.43-.68.34-.7.31c-.23.1-.47.19-.71.27l-.72.25-.13.72-.12.72-.12.73-.13.72a2.39,2.39,0,0,1-.3.85,2.64,2.64,0,0,1-.56.68,2.52,2.52,0,0,1-.76.44,2.65,2.65,0,0,1-.89.16H18.8a2.65,2.65,0,0,1-.89-.16,2.52,2.52,0,0,1-.76-.44,2.64,2.64,0,0,1-.56-.68,2.39,2.39,0,0,1-.3-.85l-.12-.72L16,37.67,15.92,37l-.12-.72L15.1,36l-.68-.26c-.23-.1-.46-.19-.68-.3l-.66-.32-.6.43-.61.43-.61.43-.6.43a1.68,1.68,0,0,1-.34.2,1.94,1.94,0,0,1-.36.15,2.34,2.34,0,0,1-.38.09l-.39,0a2.07,2.07,0,0,1-.5,0,2.43,2.43,0,0,1-.48-.14,2.11,2.11,0,0,1-.44-.24,3.66,3.66,0,0,1-.39-.32l-.64-.64-.64-.64-.64-.64L4.82,34a2.36,2.36,0,0,1-.52-.75,2.44,2.44,0,0,1-.23-.84,2.89,2.89,0,0,1,.08-.88,2.68,2.68,0,0,1,.39-.82L5,30.11l.42-.59.42-.59.43-.59c-.12-.22-.24-.45-.35-.68s-.21-.46-.31-.69-.19-.47-.28-.71-.17-.48-.24-.72l-.73-.12-.74-.13-.73-.12L2.13,25a2.6,2.6,0,0,1-.85-.3,2.49,2.49,0,0,1-.68-.57,2.47,2.47,0,0,1-.44-.75A2.65,2.65,0,0,1,0,22.53V18.9A2.56,2.56,0,0,1,.16,18a2.4,2.4,0,0,1,.44-.76,2.29,2.29,0,0,1,.68-.56,2.4,2.4,0,0,1,.85-.31l.71-.12.72-.12L4.27,16,5,15.9c.07-.24.15-.49.24-.73s.17-.47.26-.71.2-.46.31-.69.22-.46.34-.69l-.44-.6-.43-.61-.43-.61-.43-.6A2.61,2.61,0,0,1,4,9a2.48,2.48,0,0,1,.22-.85,2.68,2.68,0,0,1,.52-.74l.64-.65L6,6.09l.64-.64.64-.64a2.37,2.37,0,0,1,.39-.32,2.34,2.34,0,0,1,.44-.24,2.54,2.54,0,0,1,.47-.14,2.83,2.83,0,0,1,.5-.05,2.6,2.6,0,0,1,.4,0l.39.09a2.75,2.75,0,0,1,.36.15,2.33,2.33,0,0,1,.34.2l.59.43.59.43.59.42.6.43.68-.35.69-.31L15,5.3l.72-.24.12-.73L16,3.59l.12-.73.13-.73a2.39,2.39,0,0,1,.3-.85A2.64,2.64,0,0,1,17.08.6a2.52,2.52,0,0,1,.76-.44A2.65,2.65,0,0,1,18.73,0h3.63a2.65,2.65,0,0,1,.89.16A2.4,2.4,0,0,1,24,.6a2.64,2.64,0,0,1,.56.68,2.4,2.4,0,0,1,.31.85l.12.71.12.72.12.71.12.72c.25.07.5.16.75.24l.74.29c.24.1.48.2.72.32s.47.22.7.35l.6-.43.6-.43.6-.42.6-.43a1.94,1.94,0,0,1,.33-.2,2.39,2.39,0,0,1,.37-.15A2.34,2.34,0,0,1,31.75,4a2.56,2.56,0,0,1,.39,0,2.07,2.07,0,0,1,.5,0,2.64,2.64,0,0,1,.48.14,2,2,0,0,1,.43.24,2.37,2.37,0,0,1,.39.32l.64.64.65.64.64.64.64.64a2.53,2.53,0,0,1,.52.75,2.43,2.43,0,0,1,.22.84,2.38,2.38,0,0,1-.08.88,2.44,2.44,0,0,1-.38.82l-.43.59-.43.6-.42.6-.43.59c.12.23.23.46.34.68s.21.47.31.7l.27.71q.14.36.24.72l.73.13.72.12.72.12.73.12a2.7,2.7,0,0,1,.85.31,2.6,2.6,0,0,1,.67.56A2.52,2.52,0,0,1,41.1,17.92ZM26.74,23.44a6.67,6.67,0,0,0,0-5.21,6.61,6.61,0,0,0-6.1-4.1,6.5,6.5,0,0,0-2.58.53A6.65,6.65,0,0,0,16,16.1a6.74,6.74,0,0,0-1.42,2.13A6.74,6.74,0,0,0,16,25.57a6.53,6.53,0,0,0,4.69,2A6.75,6.75,0,0,0,23.22,27a6.61,6.61,0,0,0,2.1-1.44A6.68,6.68,0,0,0,26.74,23.44Zm.24-9a9,9,0,0,1,2.63,6.41A9,9,0,0,1,27,27.24a8.9,8.9,0,0,1-9.83,2,8.77,8.77,0,0,1-2.85-2,9,9,0,0,1-1.93-2.88,9.09,9.09,0,0,1,1.93-9.94,8.86,8.86,0,0,1,9.83-1.94A9,9,0,0,1,27,14.42Z" fill-rule="evenodd" />
</svg>
