<?xml version="1.0" encoding="utf-8"?>
<!-- Generator: Adobe Illustrator 23.0.1, SVG Export Plug-In . SVG Version: 6.00 Build 0)  -->
<svg version="1.1" id="switch" xmlns="http://www.w3.org/2000/svg" xmlns:xlink="http://www.w3.org/1999/xlink" x="0px" y="0px"
	 viewBox="0 0 69 69.9" enable-background="new 0 0 69 69.9" xml:space="preserve">
<path id="Fill_1" fill="inherit" d="M49.2,69.9c-0.2,0-0.4,0-0.5,0c-1.3-0.1-2.6-0.7-3.5-1.7c-0.8-0.9-1.4-2-1.5-3.2
	c-0.3-2.6,1.3-5.1,3.9-5.9c2.4-0.7,4.9,0.2,6.3,2.2L53,61.9l0,0l-0.6,0.5l-0.3,0.2c-0.6-1-1.7-1.6-2.9-1.6h0c-0.9,0-1.7,0.3-2.3,1
	c-1.2,1.2-1.3,3.1-0.1,4.4c0,0,0.1,0.1,0.1,0.1c0.6,0.6,1.4,1,2.3,1c0.2,0,0.3,0,0.5,0c1-0.1,1.9-0.7,2.4-1.6l1,0.8l0.1,0.1l0.6,0.5
	C52.8,69,51,69.9,49.2,69.9z M4.6,69.8c-1.5,0-3-0.3-4.4-1c-0.1,0-0.1-0.1-0.2-0.1c0,0,0,0,0,0v0l0,0l0,0l0,0l0.3-0.5L0.9,67
	c0.1,0,0.3,0.1,0.4,0.2l0.1,0l0.1,0h0l0,0h0h0c0.5,0.2,0.9,0.3,1.3,0.4c0.6,0.2,1.1,0.2,1.7,0.2c0.6,0,1.2-0.1,1.7-0.3
	c0.2-0.1,0.4-0.2,0.6-0.3c0.3-0.2,0.5-0.6,0.5-1c-0.1-0.3-0.4-0.6-0.7-0.7c-0.7-0.2-1.3-0.4-2-0.5h0h0h0h0h0l-0.2,0l-0.2,0l-0.2,0
	c-1-0.1-2.1-0.5-3-1c-0.6-0.4-1-1.1-1.1-1.8c-0.1-0.7,0.2-1.5,0.8-2c1.1-1,2.5-1.5,4-1.4h0.1c1.3,0,2.5,0.3,3.7,0.7
	c0,0,0.1,0,0.1,0.1l0,0c0,0,0,0,0.1,0L8.7,60l-0.2,0.4l-0.1,0.3l-0.3,0.6l-0.1,0.2c-0.2-0.1-0.5-0.1-0.7-0.2h0l0,0h0h0
	c-0.5-0.2-1-0.3-1.5-0.4c-0.4-0.1-0.8-0.1-1.2-0.1c-0.5,0-1.1,0.1-1.6,0.3c-0.4,0.1-0.7,0.4-0.7,0.8c0,0.4,0.3,0.7,0.7,0.8
	c0.4,0.1,0.9,0.2,1.3,0.3h0l0,0c0.3,0.1,0.8,0.2,1.2,0.3h0c0.8,0.2,1.7,0.5,2.5,0.8c1,0.3,1.7,1.3,1.6,2.3c0.1,1.1-0.5,2.1-1.5,2.7
	c-0.9,0.4-1.8,0.7-2.7,0.7C5.1,69.8,4.9,69.8,4.6,69.8z M16,69.5L16,69.5c-0.3,0-0.5,0-0.8,0h-0.3h-0.2h-0.2h0h-0.4h0
	c-0.2,0-0.3,0-0.4-0.3c-0.6-2.1-1.2-4.3-1.8-6.2l0-0.1l-0.3-0.9l0,0l-0.2-0.7l-0.2-0.7l0-0.1l-0.1-0.3L11,60v0l-0.2-0.6
	c0,0,0-0.1,0-0.1c0,0,0-0.1,0-0.1h1c0.3,0,0.7,0,1.1,0c0.1,0,0.2,0.2,0.3,0.3c0.6,2.1,1.1,4.2,1.6,5.8l0.3,1.3l0-0.1l0-0.1l0-0.1
	l0-0.1l0,0l0,0l0,0c0-0.1,0.1-0.2,0.1-0.4l0.3-1l0,0v0l0,0c0.5-1.7,1-3.4,1.5-5.1c0.1-0.3,0.2-0.4,0.4-0.4h0.1c0.2,0,0.4,0,0.5,0
	s0.3,0,0.5,0c0,0,0.1,0,0.1,0c0.3,0,0.4,0.1,0.5,0.4c0.4,1.4,0.8,2.8,1.2,4.1l0.1,0.4l0.1,0.5l0.1,0.2v0l0.2,0.7l0.2,0.7
	c0,0.1,0,0.1,0.1,0.2l0,0l0,0l0,0l0,0.1l0,0c0,0,0,0,0,0.1l0,0l0.1-0.5l0,0c0.1-0.3,0.2-0.6,0.3-1c0.2-0.6,0.3-1.1,0.5-1.7v0
	l0.1-0.5l0.1-0.3c0.3-1,0.6-2.1,0.9-3.3c0-0.1,0.2-0.2,0.3-0.3c0.4,0,0.8,0,1,0h1l0,0.1l0,0.1l0,0.1l0,0.1l0,0.1l0,0.1l0,0.1
	c-0.1,0.3-0.2,0.6-0.2,0.9l-0.4,1.2L24.6,63l0,0.1l-0.1,0.3l-0.1,0.3c-0.5,1.8-1,3.6-1.6,5.5c-0.1,0.3-0.2,0.4-0.4,0.4h0
	c-0.3,0-0.6,0-0.9,0c-0.3,0-0.5,0-0.9,0h0c-0.2,0-0.5-0.1-0.5-0.4c0,0,0,0,0,0c-0.4-1.6-0.9-3.2-1.3-4.6l0,0v0
	c-0.1-0.5-0.3-1-0.4-1.5l0-0.1l0,0c0,0,0-0.1,0-0.1l0,0c0,0.1-0.1,0.2-0.1,0.3l0,0.1l0,0.1l0,0.1c-0.1,0.3-0.2,0.7-0.3,1.1l-0.2,0.7
	l-0.1,0.3l0,0.1c-0.3,1.1-0.7,2.3-1,3.6C16.3,69.4,16.2,69.5,16,69.5z M30.5,69.5h-1.1h-0.8c-0.1,0-0.2,0-0.3,0h0l-0.1,0V59.1h2.3
	L30.5,69.5L30.5,69.5z M57.4,69.5c-0.3,0-0.7,0-1.1,0c-0.1,0-0.2-0.3-0.2-0.4c0-1.1,0-2.2,0-3.3v-0.3c0-0.4,0-0.7,0-1.1
	c0-0.4,0-0.8,0-1.2v0c0-1.2,0-2.5,0-3.7c0-0.1,0-0.2,0.1-0.3c0.1-0.1,0.2-0.1,0.3-0.1h0c0.2,0,0.4,0,0.7,0h0.5h0.1h0.6
	c0,0.4,0,0.7,0,1.1c0,1,0,1.7,0,2.6c0,0.1,0,0.3,0.1,0.4c0.1,0.1,0.2,0.1,0.3,0.1h0c0.7,0,1.3,0,1.9,0c0.6,0,1.3,0,1.9,0h0
	c0.1,0,0.3,0,0.4-0.1c0.1-0.1,0.1-0.3,0.1-0.4c0-0.8,0-1.6,0-2.4c0-0.2,0-0.5,0-0.7c0-0.1,0-0.2,0-0.3v0c0,0,0,0,0-0.1v0
	c0,0,0,0,0,0v0h2.1v10.4h-2.1v-4.1h-4.8v4.1L57.4,69.5L57.4,69.5z M66.8,69.5L66.8,69.5C66.8,69.5,66.7,69.5,66.8,69.5
	c-0.1-0.2-0.1-0.2-0.1-0.3c0-0.1,0-0.3,0-0.4v-0.1c0-0.1,0-0.2,0-0.2c0,0,0,0-0.1,0h0c0,0-0.1,0-0.1,0c0,0-0.1-0.1-0.1-0.1
	c0,0,0,0-0.1-0.1c0,0,0,0,0,0l0,0l0,0l0,0l0,0c0,0,0.1-0.1,0.1-0.1c0.2,0,0.3,0,0.4,0c0.1,0,0.2,0,0.3,0c0.1,0,0.1,0,0.2,0.1l0,0
	c0,0,0,0,0.1,0h0l0,0l0,0l0,0c0,0,0,0,0,0l0,0h0l0,0l0,0c0,0-0.1,0.1-0.1,0.1c0,0-0.1,0-0.1,0h0h0h0h0c0,0,0,0.1,0,0.1v0.1
	c0,0.1,0,0.3,0,0.4c0,0.1-0.1,0.2-0.1,0.2C66.8,69.4,66.8,69.5,66.8,69.5L66.8,69.5z M36.4,69.5v-8.2h-3.3v-2.2h8.8v2.2h-3.2v8.2
	L36.4,69.5L36.4,69.5z M67.7,69.5L67.7,69.5L67.7,69.5L67.7,69.5L67.7,69.5L67.7,69.5l-0.1,0h0v-1.3h0h0h0h0c0.1,0,0.2,0.1,0.6,0.8
	v0c0.1-0.1,0.1-0.2,0.2-0.3c0.1-0.2,0.1-0.5,0.5-0.5h0.1c0.1,0.8,0.1,1.2-0.2,1.3v-0.7l0,0l-0.1,0c0,0,0,0,0,0v0v0l0,0v0l0,0v0v0v0
	v0c0,0.1-0.1,0.2-0.1,0.3c0,0.1-0.1,0.1-0.1,0.2l0,0h0l0,0l0,0l0,0c0,0,0,0,0,0l0,0l0,0c0,0-0.1-0.1-0.1-0.2c0-0.1-0.1-0.2-0.1-0.3
	l0,0l0,0l0-0.1l0,0l0-0.1l0,0.1l-0.1,0.5L67.7,69.5L67.7,69.5z M62.8,56.5L62.8,56.5c-0.8,0-1.5-0.3-2.1-0.9
	c-0.5-0.6-0.9-1.3-0.8-2.1c0-0.7,0.3-1.5,0.8-2c0.6-0.6,1.3-0.9,2.1-0.9h0c1.6,0,3,1.3,3,3c0,0.8-0.3,1.6-0.9,2.1
	C64.3,56.2,63.6,56.5,62.8,56.5L62.8,56.5z M62.8,51.9c-0.9,0-1.7,0.8-1.7,1.7c0,0.9,0.8,1.7,1.7,1.7h0c0.5,0,0.9-0.2,1.2-0.5
	c0.3-0.3,0.5-0.7,0.5-1.2C64.5,52.6,63.7,51.9,62.8,51.9L62.8,51.9z M15.5,56.4c-0.3,0-0.4,0-0.5-0.2c-0.1-0.3-0.1-0.5-0.1-0.8v-4.6
	H15c0.1,0,0.2,0,0.3,0h0.1h0.1h0.1c0.1,0,0.3,0,0.4,0c0.2,0.1,0.3,0.2,0.4,0.3c0.4,0.6,0.9,1.2,1.7,2.2l0.3,0.4l0,0l0.3,0.4
	c0,0,0,0.1,0.1,0.1l0,0l0,0l0,0l0,0c0,0,0,0,0,0.1l0,0l0,0v-2.8c0-0.7,0-0.8,0.6-0.8h0.5v5.5c-0.1,0-0.1,0-0.2,0h0h0h0h0h0h0h0h-0.1
	c-0.4,0-0.7-0.2-0.9-0.5c-0.4-0.6-0.9-1.2-1.3-1.8l0,0l0,0l0,0l0,0l0,0l0,0l0,0c-0.2-0.3-0.4-0.5-0.6-0.8c0,0,0-0.1-0.1-0.1l0,0l0,0
	l0,0l0,0l0,0l0,0l0,0l0-0.1l0,0l0,0l0,0c0,0,0,0,0,0l0,0l0,0l0,0v3.5l-0.1,0l0,0c0,0,0,0-0.1,0C15.8,56.3,15.7,56.3,15.5,56.4
	L15.5,56.4z M4.9,56.4c-0.1,0-0.2,0-0.3,0c-0.2,0-0.4-0.1-0.5-0.3c-0.5-0.6-1-1.3-1.4-1.9l-0.1-0.1L2.6,54l0,0l0,0l-0.1-0.1h0l0,0
	l-0.6-0.8c0,0,0-0.1-0.1-0.1l0,0l0,0l0,0l0,0l0,0l-0.1-0.2v3.6c0,0,0,0-0.1,0h0c0,0,0,0,0,0c-0.2,0-0.4,0-0.5,0
	c-0.3,0-0.4,0-0.5-0.2c-0.1-0.3-0.1-0.5-0.1-0.8c0-0.2,0-0.4,0-0.5v-0.6c0-1,0-2,0-3c0-0.3,0.1-0.4,0.4-0.4c0,0,0.1,0,0.1,0
	c0.4,0,0.8,0.2,1,0.6c0.4,0.5,0.8,1.2,1.4,1.9v0l0,0l0,0l0,0l0,0v0l0,0l0,0l0.1,0.2c0.1,0.2,0.3,0.4,0.4,0.5c0,0,0.1,0.1,0.1,0.1
	l0,0l0,0l0,0l0,0l0,0v-3.5h1.1v5.5h0H5.3H5.2H5.2H5.1h0L4.9,56.4L4.9,56.4z M45.9,56.4c-0.1,0-0.3,0-0.4,0c-0.1,0-0.2-0.1-0.3-0.2
	c-0.5-0.7-1.1-1.4-1.5-2l-0.1-0.2l-0.1-0.2l0,0l-0.1-0.2l-0.1-0.2l0,0L42.9,53l-0.3-0.3v3.6h-1.1v-5.5h0.1h0.2h0.3
	c0.2,0,0.3,0,0.4,0s0.2,0.1,0.3,0.2c0.5,0.6,0.8,1.1,1.3,1.7l0.1,0.1l0,0l0.2,0.2l0,0L45,54c0,0,0,0.1,0.1,0.1l0,0l0,0l0,0l0,0l0,0
	l0,0l0.1,0.1l0.1,0.1v-3.6h0.1h0.1h0.1h0.1h0.1h0.1c0.1,0,0.3,0,0.4,0c0.1,0,0.2,0.2,0.2,0.4c0,1.1,0,2.3,0,3.3c0,0.3,0,0.6,0,0.9
	v0.9h-0.1h-0.2h-0.1C46,56.3,46,56.3,45.9,56.4L45.9,56.4z M36.9,56.3h-4.2v-5.5h4.3c0,0.1,0,0.1,0,0.2c0,0.2,0,0.4,0,0.7
	c0,0.1-0.2,0.1-0.3,0.1c-0.3,0-0.6,0-1.2,0h-1.6l0,0l0,0l0,0l0,0l0,0c0,0,0,0,0,0c-0.1,0.5-0.1,0.8,0,0.9s0.4,0.1,0.9,0.1h1.9v1
	h-2.9v1.2h3.1L36.9,56.3L36.9,56.3z M26.9,56.3h-1.2V52h-1.7v-1.2h4.6V52h-1.7L26.9,56.3L26.9,56.3z M10.8,56.3H9.6v-5.5h1.2
	L10.8,56.3L10.8,56.3z M52.9,56.3h-0.2h-0.1h-0.1h-0.1h-0.1h-0.1h-0.1h-0.1H52H52h-0.1h-0.1h-0.1h-0.1h-0.1h-0.1h-0.1h-0.2v-5.5h0.1
	h0.4h0.2h0.4c0.4,0,0.6,0,0.7,0h0c0.4,0,0.9,0.1,1.3,0.2c1.3,0.3,2.1,1.6,2,2.9c-0.1,1.2-1.1,2.2-2.3,2.4
	C53.6,56.3,53.2,56.3,52.9,56.3z M52.6,52c-0.1,0-0.2,0-0.2,0.1c-0.1,0.1-0.1,0.2-0.1,0.3c0,0.3,0,0.5,0,0.8v0.1c0,0.1,0,0.2,0,0.4
	V54c0,0.3,0,0.5,0,0.8c0,0.1,0,0.2,0.1,0.3c0.1,0.1,0.1,0.1,0.2,0.1h0c0.1,0,0.2,0,0.4,0h0.1c0.2,0,0.5,0,0.7,0
	c0.8-0.1,1.4-0.7,1.4-1.5c0-0.8-0.6-1.4-1.3-1.6c-0.2,0-0.4,0-0.6,0h-0.1C53,52,52.8,52,52.6,52L52.6,52L52.6,52z M41.3,44.1h-1.9
	h-1.9c-0.7,0-0.7,0-0.7-0.8V0.6c0-0.6,0-0.6,0.6-0.6c0.7,0,1.4,0,2.1,0s1.4,0,2.1,0c1,0,1.8,0,2.5,0c2.6,0,5.1,1,7.1,2.6
	c2,1.7,3.3,3.9,3.8,6.5c0.2,0.8,0.2,1.7,0.2,2.5c0,5.9,0,11.9,0,17.8v3.3c0,6.3-5,11.4-11.3,11.4c0,0,0,0,0,0
	C43.2,44.1,42.3,44.1,41.3,44.1z M45.5,19.8c-1.2,0-2.3,0.5-3.1,1.3c-0.8,0.8-1.3,1.9-1.3,3c0,1.2,0.4,2.3,1.2,3.1
	c0.8,0.8,1.8,1.3,2.9,1.4c0.1,0,0.2,0,0.3,0c1.2,0,2.4-0.5,3.2-1.3c0.8-0.8,1.3-1.9,1.3-3c0-2.4-1.9-4.5-4.4-4.5
	C45.6,19.8,45.6,19.8,45.5,19.8L45.5,19.8z M31.7,44.1h-9.1c-3,0.1-5.9-1.1-8.1-3.2c-1.7-1.6-2.8-3.6-3.2-5.8
	c-0.2-0.7-0.2-1.3-0.2-2c0-1.8,0-3.5,0-5.3v-0.3c0-5.4-0.1-11,0.1-16.5c0-2.1,0.6-4.2,1.8-6c1.2-1.7,2.9-3.1,4.9-4
	c1.5-0.7,3.2-1,4.9-1h0c0.8,0,1.8,0,3.2,0h3.3h0.1h2.5c0.6,0,0.6,0,0.6,0.7v21.4c0,7.1,0,14.3,0,21.4C32.3,44.1,32.3,44.1,31.7,44.1
	z M25.1,3.6c-1,0-1.7,0-2.4,0c-0.6,0-1.2,0.1-1.9,0.2c-3.6,0.7-6.2,3.8-6.2,7.4c0,0.8,0,1.6,0,2.4v0.1c0,0.8,0,1.5,0,2.3V16
	c0,5.5,0,11.2,0,17c0,2.1,0.9,4.1,2.5,5.5c1.5,1.4,3.4,2.1,5.5,2.1c1,0,1.8,0,2.3,0h2.2h1.2c0.1,0,0.2,0,0.3,0l0.1,0V3.6h-0.5h-1.6
	h0L25.1,3.6z M22.1,17.4H22c-1.1,0-2.1-0.5-2.9-1.2c-0.8-0.8-1.2-1.8-1.2-2.9c0-1.1,0.4-2.1,1.1-2.9c0.8-0.8,1.9-1.3,3-1.3h0
	c2.3-0.1,4.1,1.7,4.2,4c0,0.1,0,0.1,0,0.2c0,1.1-0.5,2.2-1.3,2.9C24.1,17,23.1,17.4,22.1,17.4z"/>
</svg>
