<?xml version="1.0" encoding="utf-8"?>
<!-- Generator: Adobe Illustrator 23.0.1, SVG Export Plug-In . SVG Version: 6.00 Build 0)  -->
<svg version="1.1" id="Layer_1" xmlns="http://www.w3.org/2000/svg" xmlns:xlink="http://www.w3.org/1999/xlink" x="0px" y="0px"
	 viewBox="0 0 29.2 29.2" enable-background="new 0 0 29.2 29.2" xml:space="preserve">
<path id="Fill_1" d="M27.2,29.2H2c-1.1,0-2-0.9-2-2.1V2.1C0,0.9,0.9,0,2,0h25.1c1.1,0,2,0.9,2,2.1v25.1
	C29.2,28.3,28.3,29.2,27.2,29.2z M5.1,21.3L5.1,21.3c5.4,3.5,12.6,1.9,16-3.5c1.2-1.9,1.9-4.1,1.8-6.4c0-0.2,0-0.4,0-0.5
	c0.8-0.6,1.5-1.3,2-2.1c-0.7,0.3-1.5,0.6-2.3,0.6c0.9-0.5,1.5-1.3,1.8-2.3c-0.8,0.5-1.7,0.8-2.6,1c-1.5-1.6-4.1-1.7-5.8-0.2
	c-0.8,0.8-1.3,1.9-1.3,3c0,0.3,0,0.6,0.1,0.9c-3.3-0.2-6.4-1.7-8.4-4.3c-1.1,1.9-0.5,4.3,1.3,5.5c-0.6,0-1.3-0.2-1.8-0.5
	c0,0,0,0,0,0.1c0,2,1.4,3.6,3.3,4c-0.6,0.2-1.2,0.2-1.8,0.1c0.5,1.7,2.1,2.8,3.8,2.9c-1.4,1.1-3.2,1.8-5.1,1.8
	C5.7,21.3,5.4,21.3,5.1,21.3z"/>
</svg>
