<svg id="Layer_1" data-name="Layer 1" xmlns="http://www.w3.org/2000/svg" width="45" height="38.02" viewBox="0 0 45 38.02">
  <title>withdrawal</title>
  <path fill="inherit" d="M30.1,1.55a3,3,0,1,1-3,3,2.95,2.95,0,0,1,3-2.95M30.1,9a4.5,4.5,0,1,0-4.5-4.5A4.51,4.51,0,0,0,30.1,9M17.38,5.59a2,2,0,1,1-2,2,2,2,0,0,1,2-2m0,5.58A3.57,3.57,0,1,0,13.81,7.6a3.57,3.57,0,0,0,3.57,3.57m6.52,1.55A3.26,3.26,0,1,1,20.64,16a3.26,3.26,0,0,1,3.26-3.26M19.09,16a4.81,4.81,0,1,0,4.81-4.81A4.81,4.81,0,0,0,19.09,16M42.43,33a.55.55,0,0,1-.51.32H40.35a30.85,30.85,0,0,0-11.18,1.91,16.89,16.89,0,0,1-5.89,1.2c-5.89,0-11-1.46-13.38-3.88L2.23,24.92a2.33,2.33,0,1,1,3.3-3.29l7.21,7.22a4.66,4.66,0,0,0,4.33,3H27.93a6.79,6.79,0,0,0-4.65-1.55H17.07a3.11,3.11,0,0,1,0-6.21H27l.44-.42A9.29,9.29,0,0,1,34.3,21a10.88,10.88,0,0,1,3.84.7,10.86,10.86,0,0,0,3.88.84.6.6,0,0,1,.5.32,13.28,13.28,0,0,1,.93,5.12,12.73,12.73,0,0,1-1,5.11m-34.14-13,4.76,4.76a4.7,4.7,0,0,0-.56,1.56L6.62,20.53a3.59,3.59,0,0,0-1.14-.77,2.28,2.28,0,0,1,2.81.32m2.77-1.55,4.3,4.3a4.78,4.78,0,0,0-1.31.81L9.39,19a3.7,3.7,0,0,0-1.14-.77,2.29,2.29,0,0,1,2.81.32M42.67,21c-4.13,0-4.6-1.55-8.37-1.55a10.82,10.82,0,0,0-7.92,3.1H17.23l-5.07-5.07a3.87,3.87,0,0,0-5.49,0,3.16,3.16,0,0,0-.37.45A3.84,3.84,0,0,0,3.9,19a3.84,3.84,0,0,0-.37.45A3.86,3.86,0,0,0,1.14,26L8.8,33.68l0,0h0c2.65,2.64,8,4.32,14.46,4.32,5.81,0,7.72-3.11,17.07-3.11h2.32c1.07,0,2.33-3.55,2.33-7s-1.07-7-2.33-7" fill-rule="evenodd"/>
</svg>
