<svg xmlns="http://www.w3.org/2000/svg"><symbol id="account" viewBox="0 0 60 60"><title>account</title><defs><clipPath id="a"><path data-name="Clip 2" d="M0 0h29.988v29.988H0z" fill="none"/></clipPath></defs><g data-name="Rectangle 2 Copy 3" fill="none" stroke="currentColor" stroke-miterlimit="10"><rect width="60" height="60" rx="4" stroke="none"/><rect x=".5" y=".5" width="59" height="59" rx="3.5"/></g><g data-name="Group 3 Copy"><path data-name="Clip 2" d="M0 0h29.988v29.988H0z" fill="none" transform="translate(15 15)"/><g data-name="Group 3 Copy" clip-path="url(#a)" transform="translate(15 15)"><path data-name="Fill 1" d="M14.994 29.988a14.993 14.993 0 01-10.6-25.6A14.997 14.997 0 1125.6 25.6a14.892 14.892 0 01-10.606 4.388zm0-10.39a9.382 9.382 0 018.691 5.846 13.592 13.592 0 10-17.384 0 9.384 9.384 0 018.693-5.844zm0-.881a5.453 5.453 0 115.452-5.453 5.459 5.459 0 01-5.452 5.453z" fill="currentColor"/></g></g></symbol><symbol id="android" viewBox="0 0 44 61.9"><title>android</title><path fill="inherit" d="M6 20.893v29.9c0 1.6 1.3 2.8 2.9 2.8h4.2v6.1c0 1.3 1.1 2.3 2.3 2.2 1.3 0 2.3-1 2.3-2.2v-6.1H26v6.1c.1 1.3 1.1 2.3 2.4 2.2 1.2-.1 2.2-1 2.2-2.2v-6.1h4.2c1.6 0 2.9-1.2 2.9-2.8v-29.9H6zm-1 19.6c0 1.9-1.1 3.4-2.5 3.4s-2.5-1.5-2.5-3.4v-14.2c0-1.9 1.1-3.4 2.5-3.4s2.5 1.5 2.5 3.4v14.2zm39 0c0 1.9-1.1 3.4-2.5 3.4s-2.5-1.5-2.5-3.4v-14.2c0-1.9 1.1-3.4 2.5-3.4s2.5 1.5 2.5 3.4v14.2zm-22-21.6H6c.1-1.6.4-3.2.9-4.8.5-1.5 1.2-2.9 2-4.2 1-1.5 2.3-2.8 3.8-3.8l-1.8-5c-.1-.2-.1-.4 0-.6.1-.2.3-.3.5-.4h.3c.3 0 .7.2.8.5l1.7 4.6c2.4-1.2 5.1-1.7 7.8-1.7 2.5 0 4.9.5 7.2 1.5l1.6-4.5c.1-.3.4-.5.8-.5h.3c.2.1.4.2.5.4.1.2.1.4 0 .6l-1.7 4.8c6.7 4.3 7.3 12.9 7.3 13-.1.1-8.3.1-16 .1zm5.6-10.4c-1 0-1.8.9-1.8 1.9 0 1 .9 1.8 1.9 1.8 1 0 1.8-.9 1.8-1.8 0-1.1-.8-1.9-1.9-1.9zm-11.7 0c-1 0-1.8.9-1.8 1.9s.9 1.8 1.9 1.8c1 0 1.8-.9 1.8-1.8-.1-1.1-.9-1.9-1.9-1.9z"/></symbol><symbol id="cross" viewBox="0 0 94.6 94.6"><title>cross</title><path fill="#5A6771" d="M9.596 0L94.66 85.066l-9.545 9.546L.05 9.547z"/><path fill="#5A6771" d="M0 84.973L85.066-.09l9.546 9.546L9.547 94.519z"/></symbol><symbol id="deposit" viewBox="0 0 45 42.1"><title>deposit</title><path fill="inherit" d="M43.55 24A2.91 2.91 0 0042 21.37a14.27 14.27 0 01.15 2 15 15 0 01-.38 3.3A2.89 2.89 0 0043.55 24m-2.9-.61c0-6.82-4.91-12-12.46-13.67A6.51 6.51 0 0126.12 12a21.21 21.21 0 012.41.6.74.74 0 01.47.92.75.75 0 01-.69.5.59.59 0 01-.23 0 18.33 18.33 0 00-11.16 0 .73.73 0 01-.92-.46.74.74 0 01.47-.92 21.21 21.21 0 012.41-.6 6.42 6.42 0 01-2.07-2.29 12 12 0 00-3 1.18l-.81.46-.75-.54a13.34 13.34 0 00-4.67-2.24.13.13 0 00-.14.06.14.14 0 000 .14 19.26 19.26 0 011.66 5.42 1.38 1.38 0 01-.11.66c-.94 2.18-3.31 5.43-6 5.43h-.77a.78.78 0 00-.77.77v4.49c0 2.42 0 2.42 1.69 3.87a48.75 48.75 0 006 4.57l2.06 6.14a.72.72 0 00.67.49h2.15a.7.7 0 00.68-.54l.85-3.28a25.59 25.59 0 007 .91 24.71 24.71 0 006.62-.87l.8 3.24a.73.73 0 00.69.54h2.15a.72.72 0 00.67-.49l2.2-6.51a13 13 0 005-10.31M17.42 6.53a5.08 5.08 0 105.08-5.08 5.09 5.09 0 00-5.08 5.08M45 24a4.35 4.35 0 01-3.76 4.3 14.67 14.67 0 01-4.35 6.23l-2.09 6.23A2 2 0 0133 42.1h-2.5a2 2 0 01-1.89-1.47l-.51-2a27 27 0 01-5.55.57 27.9 27.9 0 01-5.93-.62l-.52 2.06a2 2 0 01-1.89 1.47h-2.45a2 2 0 01-1.85-1.34L8 35a51.42 51.42 0 01-5.79-4.42C0 28.67 0 28.57 0 25.58V21a2 2 0 011.88-2.09h1.05c1.69 0 3.75-2.31 4.71-4.55A18.27 18.27 0 006.1 9.23c-.6-1.31-.1-1.59.2-1.78 1.2-.66 4.45.48 6.78 2.14a13.41 13.41 0 013.16-1.28A6.55 6.55 0 0116 6.53a6.53 6.53 0 0113 0 6.21 6.21 0 01-.28 1.79c6.87 1.63 11.47 5.95 12.87 11.4A4.33 4.33 0 0145 24m-31.94-5.13a1.45 1.45 0 11-1.45-1.45 1.44 1.44 0 011.45 1.45" fill-rule="evenodd"/></symbol><symbol id="facebook" viewBox="0 0 29.2 29.2"><title>facebook</title><path d="M27.6 0h-26C.7 0 0 .7 0 1.6v26c0 .9.7 1.6 1.6 1.6h14V17.9h-3.8v-4.4h3.8v-3.2c0-3.8 2.3-5.8 5.7-5.8 1.1 0 2.3.1 3.4.2v3.9h-2.3c-1.8 0-2.2.9-2.2 2.1v2.8h4.4l-.6 4.4h-3.8v11.3h7.4c.9 0 1.6-.7 1.6-1.6v-26c0-.9-.7-1.6-1.6-1.6"/></symbol><symbol id="funds" viewBox="0 0 43 43"><title>funds</title><path fill="inherit" d="M3.79 41.07h35.37V35H29a6 6 0 110-12h9.32a1.18 1.18 0 00.88-1v-6H3.79A3.67 3.67 0 012 15.49V39a1.9 1.9 0 001.79 2.07zM3.78 10A1.88 1.88 0 002 12a1.89 1.89 0 001.81 2h2.34l3.79-4zm20.15 4l-2.38-2.57a3.23 3.23 0 01-1.91.66 3.27 3.27 0 01-1.91-.66L15.34 14zM19.64 2.4L8.82 14h3.85l4.26-4.58a1 1 0 011.47 0 2 2 0 001.24.74 2 2 0 001.25-.75 1 1 0 01.73-.31 1 1 0 01.73.32L26.6 14h3.85zM34.5 10h-5.17l3.8 4h1.37zM41 31v-8a3 3 0 01-2.67 2H29a4 4 0 000 8.08h10.21a1.93 1.93 0 00.42 0 1 1 0 01.33-.13A2.07 2.07 0 0041 31zm.12-10A1.94 1.94 0 0143 23v8a4 4 0 01-1.86 3.42V42a1 1 0 01-1 1H3.79A3.84 3.84 0 010 39V12a3.83 3.83 0 013.78-4h8L18.9.32a1 1 0 011.47 0L27.53 8h7.95a1 1 0 011 1v5h3.68a1 1 0 011 1zM29 30.05A1.05 1.05 0 1028 29a1 1 0 001 1.05zM29 26a3 3 0 11-3 3 3 3 0 013-3z" fill-rule="evenodd"/></symbol><symbol id="history" viewBox="0 0 42.167 35.75"><title>history</title><path fill="inherit" d="M34.365 35.75H11.058a1.076 1.076 0 01-1.071-1.079v-23.9H2.56a1.061 1.061 0 01-.751-.31 6.14 6.14 0 01-.032-8.671A6 6 0 016.063 0h23.309a5.8 5.8 0 012.093.389 5.967 5.967 0 01.684.319 6.146 6.146 0 011.526 1.164 6.307 6.307 0 011.168 1.706c.038.082.078.171.121.274a6.258 6.258 0 01.473 2.39v5.156a9.369 9.369 0 011.977-.22h.161a7.777 7.777 0 012.873.5 2.653 2.653 0 011.626 1.688 3.225 3.225 0 01-.76 2.876 11.036 11.036 0 01-2.688 2.425 32.218 32.218 0 00-3.189 2.61v13.4a1.077 1.077 0 01-.313.763 1.059 1.059 0 01-.759.31zM12.129 10.769v22.824h21.164V23.14c-2.186 1.819-4.845 3.682-7.972 3.713-.932 1.227-1.505 2.037-1.508 2.041a1.074 1.074 0 01-.874.454 1.052 1.052 0 01-.62-.2 1.087 1.087 0 01-.249-1.507l.006-.008a90 90 0 011.145-1.562c-.04-.212-.34-2.182 1.215-5.719a17.3 17.3 0 015.036-5.979 17.221 17.221 0 013.821-2.29V6.236a4.056 4.056 0 00-3.921-4.078 3.956 3.956 0 00-2.751 6.764 1.079 1.079 0 01-.752 1.847zm21.33 4.91A1.081 1.081 0 0134 17.694c-2.016 1.171-4.758 4.264-6.7 6.652 2.32-.769 4.5-2.7 6.6-4.577a34.823 34.823 0 013.544-2.9 8.975 8.975 0 002.156-1.924c.4-.537.451-.866.418-.977-.045-.154-.6-.6-2.483-.638h-.115a11.459 11.459 0 00-6.629 2.744 14.941 14.941 0 00-4.391 5.151 15.825 15.825 0 00-.592 1.55l.013-.016.042-.051c2.9-3.527 5.277-5.842 7.068-6.882a1.071 1.071 0 01.528-.146zM6.063 2.158A3.956 3.956 0 003.03 8.612h20.809l-.028-.067v-.01l-.011-.027a6.152 6.152 0 01.952-6.35H6.063z"/></symbol><symbol id="instagram" viewBox="0 0 29.4 29.2"><title>instagram</title><path d="M14.5 22c-4.4.1-8-3.4-8-7.8 0-2.1.9-4.2 2.5-5.6 1.5-1.4 3.4-2.1 5.4-2.1h.2c2.2 0 4.4.8 6 2.4 1.4 1.5 2.1 3.4 2 5.4 0 2.1-.9 4-2.4 5.5-1.5 1.4-3.6 2.2-5.7 2.2zm-.2-12.9c-1.3 0-2.6.5-3.5 1.4-1 1-1.6 2.3-1.6 3.8.1 2.9 2.4 5.2 5.3 5.2s5.3-2.3 5.3-5.2c.1-1.3-.4-2.6-1.3-3.6-1.1-1-2.6-1.6-4.1-1.5l-.1-.1zm10.3-2.4c0 1-.9 1.8-1.9 1.8-1 0-1.9-.8-1.9-1.8s.9-1.8 1.9-1.8c1-.1 1.9.8 1.9 1.8m-3.8 22.5H8.6C4 29.3.1 25.6 0 20.9V8.4C.1 3.7 4-.1 8.6 0h12.2c4.7-.1 8.6 3.7 8.6 8.4v12.5c0 4.7-3.9 8.4-8.6 8.3zM8.6 2.1c-3.4 0-6.3 2.8-6.4 6.3v12.5c.1 3.5 2.9 6.3 6.4 6.2h12.2c3.5.1 6.4-2.7 6.4-6.2V8.4c-.1-3.5-2.9-6.3-6.4-6.2H8.6z"/></symbol><symbol id="ios" viewBox="0 0 51 62"><title>ios</title><path fill="inherit" d="M16.3 62c-2-.1-3.9-1-5.3-2.5-1.6-1.6-3.1-3.4-4.4-5.4-3-4.5-5.1-9.6-6.1-14.9-.8-4.4-1-10.8 2.1-16.2 1.3-2.3 3.2-4.2 5.5-5.6 2.2-1.4 4.8-2.1 7.4-2.1h.2c1.9.1 3.8.5 5.6 1.3l.7.3c1.2.6 2.5 1 3.9 1.1 1.3-.2 2.6-.5 3.8-1.1.4-.2.9-.3 1.3-.5 1.9-.8 3.9-1.2 5.9-1.3h1c1.8.1 3.5.5 5.1 1.1 2.6 1 4.8 2.8 6.3 5-1.3.8-2.5 1.8-3.5 3-2.1 2.4-3.3 5.5-3.2 8.8 0 3.7 1.5 7.2 4.2 9.8 1.2 1.2 2.6 2.1 4.2 2.8v.1c-.3.9-.6 1.8-1 2.8-.9 2.1-2 4.1-3.3 6-1.2 1.9-2.6 3.6-4.2 5.2-1.4 1.5-3.4 2.3-5.4 2.4h-.2c-1.6 0-3.2-.4-4.7-1.2h-.1c-1.7-.8-3.5-1.2-5.4-1.3-1.9 0-3.7.4-5.4 1.2H21c-1.4.7-2.9 1.1-4.5 1.2h-.2zm9.4-48h-.6c-.2-1.7 0-3.5.7-5.1.6-1.5 1.4-3 2.5-4.2 1.1-1.3 2.5-2.4 4-3.2C33.7.7 35.3.2 37 .1c.2 1.8 0 3.5-.6 5.2-.6 1.6-1.4 3.1-2.5 4.5-1.1 1.3-2.4 2.4-3.9 3.2-1.4.6-2.8 1-4.3 1z"/></symbol><symbol id="settings" viewBox="0 0 41.25 41.25"><title>settings</title><path fill="inherit" d="M39 19.72v-1.06l-.06-.05h-.08l-.91-.16-.9-.15-1.05-.17-.9-.15a1.7 1.7 0 01-.32-.1 1 1 0 01-.27-.19 1.09 1.09 0 01-.21-.26 1.07 1.07 0 01-.13-.31c-.08-.31-.17-.63-.28-.94s-.22-.61-.34-.91-.26-.6-.41-.9-.3-.58-.47-.86a1.2 1.2 0 01-.13-.31 1.23 1.23 0 010-.33 1 1 0 01.06-.33 1.4 1.4 0 01.15-.3l.53-.74.54-.75.53-.75.53-.75a.09.09 0 000-.07.22.22 0 000-.08.19.19 0 000-.07.18.18 0 000-.07l-.64-.64-.64-.64-.66-.68-.64-.65H32l-.74.53-.74.54-.75.58-.77.51a1.68 1.68 0 01-.3.15 1.91 1.91 0 01-.33.06 1.12 1.12 0 01-.32 0 1 1 0 01-.32-.12c-.28-.17-.58-.33-.88-.48s-.6-.29-.91-.41-.62-.25-.94-.35-.64-.2-1-.28a1.08 1.08 0 01-.57-.34.92.92 0 01-.19-.28 1.09 1.09 0 01-.1-.32l-.16-.9-.15-.9-.15-.89-.15-.9a.19.19 0 000-.08v-.06H18.6l-.05.06a.19.19 0 000 .08l-.16.91-.15.91-.16.91-.15.91a1.21 1.21 0 01-.11.32 1.27 1.27 0 01-.18.27 1.33 1.33 0 01-.26.21 1.07 1.07 0 01-.31.13l-.94.28-.91.35c-.3.13-.6.27-.89.42s-.58.3-.86.47a1.2 1.2 0 01-.31.13 1.23 1.23 0 01-.33 0 1 1 0 01-.33-.06 1.05 1.05 0 01-.3-.15L11.43 8l-.74-.53L10 7l-.8-.57H9v-.01l-.64.65-.64.64-.72.67-.66.62a.16.16 0 000 .07.19.19 0 000 .08v.15l.53.75.54.75.54.76.53.75a1.08 1.08 0 01.16.3 1.65 1.65 0 01.06.32 1.84 1.84 0 010 .33 1.37 1.37 0 01-.13.31c-.16.28-.32.57-.46.86s-.28.59-.4.9-.24.61-.34.92-.19.62-.27.94a1.07 1.07 0 01-.13.31 1.33 1.33 0 01-.21.26 1.38 1.38 0 01-.28.19 1.19 1.19 0 01-.32.1l-.9.15-.9.15-.9.15-.89.15h-.08l-.06.05a.16.16 0 000 .07.19.19 0 000 .08v3.63a.17.17 0 000 .07.16.16 0 000 .07h.14l.91.15.91.16.91.15.91.16a1.19 1.19 0 01.32.1 1.31 1.31 0 01.27.19 1.27 1.27 0 01.21.25 1.2 1.2 0 01.13.31c.08.32.18.63.28.94s.22.62.35.92.27.6.41.89.31.57.48.85a1.27 1.27 0 01.13.32 1.84 1.84 0 010 .33 1 1 0 01-.06.33 1.68 1.68 0 01-.15.3l-.58.87-.53.75-.47.74-.53.74a.3.3 0 000 .08v.08a.19.19 0 000 .07.25.25 0 000 .07l.63.63.65.64.64.64.64.64h.22l.76-.54.75-.53.76-.54.75-.54.16-.09.16-.07h.5a.4.4 0 01.15 0h.15a.84.84 0 01.14.06c.28.16.56.31.85.45s.57.28.87.4.59.23.9.33.6.19.91.27a1.2 1.2 0 01.31.13 1.27 1.27 0 01.25.21 1 1 0 01.19.27 1.19 1.19 0 01.1.32l.15.91.16.9.15.91.15.9a.19.19 0 000 .08l.05.06h3.93l.05-.06a.19.19 0 000-.08l.16-.9.15-.91.15-.9.15-.91a1.7 1.7 0 01.1-.32 1 1 0 01.19-.27 1.08 1.08 0 01.57-.34c.31-.08.63-.17.94-.28s.61-.21.91-.34.6-.26.9-.41.58-.3.86-.47a1.2 1.2 0 01.31-.13 1.84 1.84 0 01.33 0 1 1 0 01.33.06 1.59 1.59 0 01.29.15l.75.54.75.53.75.53.74.53h.18l.64-.65.64-.64.64-.64.65-.64a.16.16 0 000-.07.19.19 0 000-.08.17.17 0 000-.07.09.09 0 000-.07l-.53-.75-.53-.75-.53-.75-.29-.72a1.77 1.77 0 01-.15-.31.87.87 0 01-.06-.32 1.84 1.84 0 010-.33 1.2 1.2 0 01.13-.31c.17-.28.33-.57.47-.86s.29-.59.41-.89.24-.61.34-.92.2-.62.28-.94a1.2 1.2 0 01.13-.31 1.27 1.27 0 01.21-.25 1 1 0 01.27-.19 1.19 1.19 0 01.32-.1l.91-.15.9-.16.91-.15.9-.15h.08l.06-.05v-.07a.22.22 0 000-.08v-2.74zm2.15-1.8a2.64 2.64 0 01.15.89v3.63a2.65 2.65 0 01-.16.89 2.52 2.52 0 01-.44.76 2.64 2.64 0 01-.68.56 2.61 2.61 0 01-.85.31l-.72.12-.73.12-.72.12-.72.12-.24.72c-.09.23-.18.47-.28.7s-.2.47-.31.7-.22.46-.34.69l.43.6.43.59.42.6.43.6a2.44 2.44 0 01.38.82 2.38 2.38 0 01.08.88 2.43 2.43 0 01-.22.84 2.53 2.53 0 01-.52.75l-.64.64-.64.64-.64.64-.64.64a3.66 3.66 0 01-.39.32 2.11 2.11 0 01-.44.24 2.43 2.43 0 01-.48.14 2.07 2.07 0 01-.5.05h-.39l-.39-.09A2.75 2.75 0 0131 37a2.33 2.33 0 01-.34-.2l-.59-.43-.6-.42-.6-.43-.59-.43-.68.34-.7.31c-.23.1-.47.19-.71.27l-.72.25-.13.72-.12.72-.12.73-.13.72a2.39 2.39 0 01-.3.85 2.64 2.64 0 01-.56.68 2.52 2.52 0 01-.76.44 2.65 2.65 0 01-.89.16H18.8a2.65 2.65 0 01-.89-.16 2.52 2.52 0 01-.76-.44 2.64 2.64 0 01-.56-.68 2.39 2.39 0 01-.3-.85l-.12-.72-.17-.76-.08-.67-.12-.72-.7-.28-.68-.26c-.23-.1-.46-.19-.68-.3l-.66-.32-.6.43-.61.43-.61.43-.6.43a1.68 1.68 0 01-.34.2 1.94 1.94 0 01-.36.15 2.34 2.34 0 01-.38.09h-.39a2.07 2.07 0 01-.5 0 2.43 2.43 0 01-.48-.14 2.11 2.11 0 01-.44-.24 3.66 3.66 0 01-.39-.32l-.64-.64-.64-.64-.64-.64-.64-.66a2.36 2.36 0 01-.52-.75 2.44 2.44 0 01-.23-.84 2.89 2.89 0 01.08-.88 2.68 2.68 0 01.39-.82l.46-.6.42-.59.42-.59.43-.59c-.12-.22-.24-.45-.35-.68s-.21-.46-.31-.69-.19-.47-.28-.71-.17-.48-.24-.72l-.73-.12-.74-.13-.73-.12-.76-.17a2.6 2.6 0 01-.85-.3 2.49 2.49 0 01-.68-.57 2.47 2.47 0 01-.44-.75 2.65 2.65 0 01-.16-.85V18.9a2.56 2.56 0 01.16-.9 2.4 2.4 0 01.44-.76 2.29 2.29 0 01.68-.56 2.4 2.4 0 01.85-.31l.71-.12.72-.12.71-.13.73-.1c.07-.24.15-.49.24-.73s.17-.47.26-.71.2-.46.31-.69.22-.46.34-.69l-.44-.6-.43-.61-.43-.61-.43-.6A2.61 2.61 0 014 9a2.48 2.48 0 01.22-.85 2.68 2.68 0 01.52-.74l.64-.65.62-.67.64-.64.64-.64a2.37 2.37 0 01.39-.32 2.34 2.34 0 01.44-.24 2.54 2.54 0 01.47-.14 2.83 2.83 0 01.5-.05 2.6 2.6 0 01.4 0l.39.09a2.75 2.75 0 01.36.15 2.33 2.33 0 01.34.2l.59.43.59.43.59.42.6.43.68-.35.69-.31.69-.25.72-.24.12-.73.16-.74.12-.73.13-.73a2.39 2.39 0 01.3-.85 2.64 2.64 0 01.53-.68 2.52 2.52 0 01.76-.44 2.65 2.65 0 01.89-.16h3.63a2.65 2.65 0 01.89.16A2.4 2.4 0 0124 .6a2.64 2.64 0 01.56.68 2.4 2.4 0 01.31.85l.12.71.12.72.12.71.12.72c.25.07.5.16.75.24l.74.29c.24.1.48.2.72.32s.47.22.7.35l.6-.43.6-.43.6-.42.6-.43a1.94 1.94 0 01.33-.2 2.39 2.39 0 01.37-.15 2.34 2.34 0 01.39-.13 2.56 2.56 0 01.39 0 2.07 2.07 0 01.5 0 2.64 2.64 0 01.48.14 2 2 0 01.43.24 2.37 2.37 0 01.39.32l.64.64.65.64.64.64.64.64a2.53 2.53 0 01.52.75 2.43 2.43 0 01.22.84 2.38 2.38 0 01-.08.88 2.44 2.44 0 01-.38.82l-.43.59-.43.6-.42.6-.43.59c.12.23.23.46.34.68s.21.47.31.7l.27.71q.14.36.24.72l.73.13.72.12.72.12.73.12a2.7 2.7 0 01.85.31 2.6 2.6 0 01.67.56 2.52 2.52 0 01.44.82zm-14.41 5.52a6.67 6.67 0 000-5.21 6.61 6.61 0 00-6.1-4.1 6.5 6.5 0 00-2.58.53A6.65 6.65 0 0016 16.1a6.74 6.74 0 00-1.42 2.13A6.74 6.74 0 0016 25.57a6.53 6.53 0 004.69 2 6.75 6.75 0 002.53-.57 6.61 6.61 0 002.1-1.44 6.68 6.68 0 001.42-2.12zm.24-9a9 9 0 012.63 6.41A9 9 0 0127 27.24a8.9 8.9 0 01-9.83 2 8.77 8.77 0 01-2.85-2 9 9 0 01-1.93-2.88 9.09 9.09 0 011.93-9.94 8.86 8.86 0 019.83-1.94A9 9 0 0127 14.42z" fill-rule="evenodd"/></symbol><symbol id="switch" viewBox="0 0 69 69.9"><title>switch</title><path fill="inherit" d="M49.2 69.9h-.5c-1.3-.1-2.6-.7-3.5-1.7-.8-.9-1.4-2-1.5-3.2-.3-2.6 1.3-5.1 3.9-5.9 2.4-.7 4.9.2 6.3 2.2l-.9.6-.6.5-.3.2c-.6-1-1.7-1.6-2.9-1.6-.9 0-1.7.3-2.3 1-1.2 1.2-1.3 3.1-.1 4.4l.1.1c.6.6 1.4 1 2.3 1h.5c1-.1 1.9-.7 2.4-1.6l1 .8.1.1.6.5c-1 1.7-2.8 2.6-4.6 2.6zm-44.6-.1c-1.5 0-3-.3-4.4-1-.1 0-.1-.1-.2-.1l.3-.5.6-1.2c.1 0 .3.1.4.2h.2c.5.2.9.3 1.3.4.6.2 1.1.2 1.7.2.6 0 1.2-.1 1.7-.3l.6-.3c.3-.2.5-.6.5-1-.1-.3-.4-.6-.7-.7-.7-.2-1.3-.4-2-.5H4c-1-.1-2.1-.5-3-1-.6-.4-1-1.1-1.1-1.8-.1-.7.2-1.5.8-2 1.1-1 2.5-1.5 4-1.4h.1c1.3 0 2.5.3 3.7.7 0 0 .1 0 .1.1h.1v.4l-.2.4-.1.3-.3.6-.1.2c-.2-.1-.5-.1-.7-.2-.5-.2-1-.3-1.5-.4-.4-.1-.8-.1-1.2-.1-.5 0-1.1.1-1.6.3-.4.1-.7.4-.7.8s.3.7.7.8c.4.1.9.2 1.3.3.3.1.8.2 1.2.3.8.2 1.7.5 2.5.8 1 .3 1.7 1.3 1.6 2.3.1 1.1-.5 2.1-1.5 2.7-.9.4-1.8.7-2.7.7h-.8zm11.4-.3h-1.9c-.2 0-.3 0-.4-.3-.6-2.1-1.2-4.3-1.8-6.2v-.1l-.3-.9-.2-.7-.2-.7v-.1l-.1-.3-.1-.2-.2-.6v-.2h2.1c.1 0 .2.2.3.3.6 2.1 1.1 4.2 1.6 5.8l.3 1.3v-.4c0-.1.1-.2.1-.4l.3-1 1.5-5.1c.1-.3.2-.4.4-.4h1.2c.3 0 .4.1.5.4.4 1.4.8 2.8 1.2 4.1l.1.4.1.5.1.2.2.7.2.7c0 .1 0 .1.1.2v.2l.1-.5c.1-.3.2-.6.3-1 .2-.6.3-1.1.5-1.7l.1-.5.1-.3c.3-1 .6-2.1.9-3.3 0-.1.2-.2.3-.3h2v.7c-.1.3-.2.6-.2.9l-.4 1.2-.2 1.1v.1l-.1.3-.1.3c-.5 1.8-1 3.6-1.6 5.5-.1.3-.2.4-.4.4h-1.8c-.2 0-.5-.1-.5-.4-.4-1.6-.9-3.2-1.3-4.6-.1-.5-.3-1-.4-1.5v-.2c0 .1-.1.2-.1.3v.3c-.1.3-.2.7-.3 1.1l-.2.7-.1.3v.1c-.3 1.1-.7 2.3-1 3.6-.4.1-.5.2-.7.2zm14.5 0h-2.3V59.1h2.3v10.4zm26.9 0h-1.1c-.1 0-.2-.3-.2-.4V59.5c0-.1 0-.2.1-.3.1-.1.2-.1.3-.1h1.9v3.7c0 .1 0 .3.1.4.1.1.2.1.3.1h3.8c.1 0 .3 0 .4-.1.1-.1.1-.3.1-.4V59.3h2.1v10.4h-2.1v-4.1h-4.8v4.1l-.9-.2zm9.4 0s-.1 0 0 0c-.1-.2-.1-.2-.1-.3v-.7h-.2l-.1-.1-.1-.1.1-.1h.7c.1 0 .1 0 .2.1h.1l-.1.1h-.1v.6c0 .1-.1.2-.1.2-.3.2-.3.3-.3.3zm-30.4 0v-8.2h-3.3v-2.2h8.8v2.2h-3.2v8.2h-2.3zm31.3 0h-.1v-1.3c.1 0 .2.1.6.8.1-.1.1-.2.2-.3.1-.2.1-.5.5-.5h.1c.1.8.1 1.2-.2 1.3v-.7h-.1c0 .1-.1.2-.1.3 0 .1-.1.1-.1.2 0 0-.1-.1-.1-.2s-.1-.2-.1-.3v-.2.1l-.1.5-.5.3zm-4.9-13c-.8 0-1.5-.3-2.1-.9-.5-.6-.9-1.3-.8-2.1 0-.7.3-1.5.8-2 .6-.6 1.3-.9 2.1-.9 1.6 0 3 1.3 3 3 0 .8-.3 1.6-.9 2.1-.6.5-1.3.8-2.1.8zm0-4.6c-.9 0-1.7.8-1.7 1.7 0 .9.8 1.7 1.7 1.7.5 0 .9-.2 1.2-.5.3-.3.5-.7.5-1.2 0-1-.8-1.7-1.7-1.7zm-47.3 4.5c-.3 0-.4 0-.5-.2-.1-.3-.1-.5-.1-.8v-4.6H16c.2.1.3.2.4.3.4.6.9 1.2 1.7 2.2l.3.4.3.4s0 .1.1.1v.1-2.8c0-.7 0-.8.6-.8h.5v5.5h-.3c-.4 0-.7-.2-.9-.5-.4-.6-.9-1.2-1.3-1.8-.2-.3-.4-.5-.6-.8 0 0 0-.1-.1-.1v-.1 3.5h-.2c-.7-.1-.8-.1-1 0zm-10.6 0h-.3c-.2 0-.4-.1-.5-.3-.5-.6-1-1.3-1.4-1.9l-.1-.1V54l-.1-.1-.6-.8s0-.1-.1-.1l-.1-.2v3.6h-.6c-.3 0-.4 0-.5-.2-.1-.3-.1-.5-.1-.8v-4.1c0-.3.1-.4.4-.4H1c.4 0 .8.2 1 .6.4.5.8 1.2 1.4 1.9l.1.2c.1.2.3.4.4.5l.1.1v-3.5h1.1v5.5h.2-.2l-.2.2zm41 0h-.4c-.1 0-.2-.1-.3-.2-.5-.7-1.1-1.4-1.5-2l-.1-.2-.1-.2-.1-.2-.1-.2-.4-.4-.3-.3v3.6h-1.1v-5.5h1c.1 0 .2.1.3.2.5.6.8 1.1 1.3 1.7l.1.1.2.2.6 1s0 .1.1.1l.1.1.1.1v-3.6h1c.1 0 .2.2.2.4v5.1h-.4l-.2.2zm-9-.1h-4.2v-5.5H37v.9c0 .1-.2.1-.3.1h-2.8c-.1.5-.1.8 0 .9s.4.1.9.1h1.9v1h-2.9V55h3.1v1.3zm-10 0h-1.2V52H24v-1.2h4.6V52h-1.7v4.3zm-16.1 0H9.6v-5.5h1.2v5.5zm42.1 0h-1.8v-5.5h1.8c.4 0 .9.1 1.3.2 1.3.3 2.1 1.6 2 2.9-.1 1.2-1.1 2.2-2.3 2.4h-1zm-.3-4.3c-.1 0-.2 0-.2.1-.1.1-.1.2-.1.3v2.4c0 .1 0 .2.1.3.1.1.1.1.2.1h1.2c.8-.1 1.4-.7 1.4-1.5s-.6-1.4-1.3-1.6h-.7c-.2-.1-.4-.1-.6-.1zm-11.3-7.9h-3.8c-.7 0-.7 0-.7-.8V.6c0-.6 0-.6.6-.6h6.7c2.6 0 5.1 1 7.1 2.6 2 1.7 3.3 3.9 3.8 6.5.2.8.2 1.7.2 2.5v21.1c0 6.3-5 11.4-11.3 11.4h-2.6zm4.2-24.3c-1.2 0-2.3.5-3.1 1.3-.8.8-1.3 1.9-1.3 3 0 1.2.4 2.3 1.2 3.1.8.8 1.8 1.3 2.9 1.4h.3c1.2 0 2.4-.5 3.2-1.3.8-.8 1.3-1.9 1.3-3 0-2.4-1.9-4.5-4.4-4.5h-.1zM31.7 44.1h-9.1c-3 .1-5.9-1.1-8.1-3.2-1.7-1.6-2.8-3.6-3.2-5.8-.2-.7-.2-1.3-.2-2v-5.6c0-5.4-.1-11 .1-16.5 0-2.1.6-4.2 1.8-6 1.2-1.7 2.9-3.1 4.9-4 1.5-.7 3.2-1 4.9-1h9.1c.6 0 .6 0 .6.7v42.8c-.2.6-.2.6-.8.6zM25.1 3.6h-2.4c-.6 0-1.2.1-1.9.2-3.6.7-6.2 3.8-6.2 7.4V33c0 2.1.9 4.1 2.5 5.5 1.5 1.4 3.4 2.1 5.5 2.1h6.1v-37h-3.6zm-3 13.8H22c-1.1 0-2.1-.5-2.9-1.2-.8-.8-1.2-1.8-1.2-2.9 0-1.1.4-2.1 1.1-2.9.8-.8 1.9-1.3 3-1.3 2.3-.1 4.1 1.7 4.2 4v.2c0 1.1-.5 2.2-1.3 2.9-.8.8-1.8 1.2-2.8 1.2z"/></symbol><symbol id="twitter" viewBox="0 0 29.2 29.2"><title>twitter</title><path d="M27.2 29.2H2c-1.1 0-2-.9-2-2.1v-25C0 .9.9 0 2 0h25.1c1.1 0 2 .9 2 2.1v25.1c.1 1.1-.8 2-1.9 2zM5.1 21.3c5.4 3.5 12.6 1.9 16-3.5 1.2-1.9 1.9-4.1 1.8-6.4v-.5c.8-.6 1.5-1.3 2-2.1-.7.3-1.5.6-2.3.6.9-.5 1.5-1.3 1.8-2.3-.8.5-1.7.8-2.6 1-1.5-1.6-4.1-1.7-5.8-.2-.8.8-1.3 1.9-1.3 3 0 .3 0 .6.1.9-3.3-.2-6.4-1.7-8.4-4.3-1.1 1.9-.5 4.3 1.3 5.5-.6 0-1.3-.2-1.8-.5v.1c0 2 1.4 3.6 3.3 4-.6.2-1.2.2-1.8.1.5 1.7 2.1 2.8 3.8 2.9-1.4 1.1-3.2 1.8-5.1 1.8-.4-.1-.7-.1-1-.1z"/></symbol><symbol id="withdrawal" viewBox="0 0 45 38.02"><title>withdrawal</title><path fill="inherit" d="M30.1 1.55a3 3 0 11-3 3 2.95 2.95 0 013-2.95m0 7.4a4.5 4.5 0 10-4.5-4.5A4.51 4.51 0 0030.1 9M17.38 5.59a2 2 0 11-2 2 2 2 0 012-2m0 5.58a3.57 3.57 0 10-3.57-3.57 3.57 3.57 0 003.57 3.57m6.52 1.55A3.26 3.26 0 1120.64 16a3.26 3.26 0 013.26-3.26M19.09 16a4.81 4.81 0 104.81-4.81A4.81 4.81 0 0019.09 16m23.34 17a.55.55 0 01-.51.32h-1.57a30.85 30.85 0 00-11.18 1.91 16.89 16.89 0 01-5.89 1.2c-5.89 0-11-1.46-13.38-3.88l-7.67-7.63a2.33 2.33 0 113.3-3.29l7.21 7.22a4.66 4.66 0 004.33 3h10.86a6.79 6.79 0 00-4.65-1.55h-6.21a3.11 3.11 0 010-6.21H27l.44-.42A9.29 9.29 0 0134.3 21a10.88 10.88 0 013.84.7 10.86 10.86 0 003.88.84.6.6 0 01.5.32 13.28 13.28 0 01.93 5.12 12.73 12.73 0 01-1 5.11m-34.14-13l4.76 4.76a4.7 4.7 0 00-.56 1.56l-5.89-5.88a3.59 3.59 0 00-1.14-.77 2.28 2.28 0 012.81.32m2.77-1.55l4.3 4.3a4.78 4.78 0 00-1.31.81L9.39 19a3.7 3.7 0 00-1.14-.77 2.29 2.29 0 012.81.32M42.67 21c-4.13 0-4.6-1.55-8.37-1.55a10.82 10.82 0 00-7.92 3.1h-9.15l-5.07-5.07a3.87 3.87 0 00-5.49 0 3.16 3.16 0 00-.37.45A3.84 3.84 0 003.9 19a3.84 3.84 0 00-.37.45A3.86 3.86 0 001.14 26l7.66 7.68c2.65 2.64 8 4.32 14.46 4.32 5.81 0 7.72-3.11 17.07-3.11h2.32c1.07 0 2.33-3.55 2.33-7s-1.07-7-2.33-7" fill-rule="evenodd"/></symbol></svg>